# xmcd
#
# Track frame offsets: 
#        182
#        12287
#        27327
#        39132
#        73867
#        87225
#        94955
#        105715
#        123397
#        139447
#        156827
#        166565
#        183120
#        194555
#
# Disc length: 2769 seconds
#
# Revision: 0
# Processed by: cddbd v1.5.2PL0 Copyright (c) Steve Scherf et al.
# Submitted via: ExactAudioCopy v1.0b3
#
DISCID=b60acf0e
DTITLE=Brett Marvin And The Thunderbolts - Brett Marvin And The Thunde
DTITLE=rbolts
DYEAR=1972
DGENRE=Blues
TTITLE0=Sea Side Shuffle
TTITLE1=Little Red Caboose
TTITLE2=Take Your Money
TTITLE3=Shave 'Em Dry
TTITLE4=I'm Coming
TTITLE5=Eyesight To The Blind
TTITLE6=Highway 61
TTITLE7=Southbound Lane
TTITLE8=Calcatta Got Beggar
TTITLE9=Thoughts On You
TTITLE10=Ball and Chain
TTITLE11=Love In Jest
TTITLE12=On A Saturday Night
TTITLE13=Going Round The World
EXTD=
EXTT0=
EXTT1=
EXTT2=
EXTT3=
EXTT4=
EXTT5=
EXTT6=
EXTT7=
EXTT8=
EXTT9=
EXTT10=
EXTT11=
EXTT12=
EXTT13=
PLAYORDER=
